<svg id="Capa_1" data-name="Capa 1" xmlns="http://www.w3.org/2000/svg" viewBox="0 0 50 50"><defs><style>.cls-1{fill:#fff;}</style></defs><path class="cls-1" d="M34.53,13.43a2.11,2.11,0,1,0,2.11,2.11A2.11,2.11,0,0,0,34.53,13.43Z"/><path class="cls-1" d="M25.15,16.13A8.87,8.87,0,1,0,34,25,8.88,8.88,0,0,0,25.15,16.13Zm0,14.55A5.68,5.68,0,1,1,30.83,25,5.69,5.69,0,0,1,25.15,30.68Z"/><path class="cls-1" d="M32.19,43H17.81A10.82,10.82,0,0,1,7,32.19V17.81A10.82,10.82,0,0,1,17.81,7H32.19A10.82,10.82,0,0,1,43,17.81V32.19A10.82,10.82,0,0,1,32.19,43ZM17.81,10.39a7.43,7.43,0,0,0-7.42,7.42V32.19a7.43,7.43,0,0,0,7.42,7.42H32.19a7.43,7.43,0,0,0,7.42-7.42V17.81a7.43,7.43,0,0,0-7.42-7.42Z"/></svg>