<svg id="Layer_1" data-name="Layer 1" xmlns="http://www.w3.org/2000/svg" viewBox="0 0 513.77 162.54"><defs><style>.cls-1{fill:#73b731;}.cls-2{fill:#00507a;}</style></defs><path class="cls-1" d="M167.85,93.85l8.79,2.24a16.8,16.8,0,0,1-6.52,9.81A20,20,0,0,1,145,104.24a18.14,18.14,0,0,1-5.59-13.7A18.24,18.24,0,0,1,145,76.8a19,19,0,0,1,13.67-5.37,18.49,18.49,0,0,1,11.28,3.64,18.16,18.16,0,0,1,6.74,9.63l-9.15,2.59q-1.8-7.14-8.87-7.14A9.59,9.59,0,0,0,151.37,83a10.36,10.36,0,0,0-2.78,7.5A10.25,10.25,0,0,0,151.37,98a9.67,9.67,0,0,0,7.25,2.85Q165.53,100.85,167.85,93.85Z"/><path class="cls-1" d="M208.81,72.29l-.51,9.16h-2.09q-12.83,0-12.83,15.43v11.61h-9.52v-36h9.52v6.56Q198.29,72,206.29,72A8.56,8.56,0,0,1,208.81,72.29Z"/><path class="cls-2" d="M263.61,75.65a15.27,15.27,0,0,1,4,10.92v21.92h-9.52V88.59a9.09,9.09,0,0,0-2-6.13,6.63,6.63,0,0,0-5.3-2.31q-8.94,0-8.94,12.41v15.93h-9.52v-36h9.52v3.24a15.32,15.32,0,0,1,11.32-4.32A13.65,13.65,0,0,1,263.61,75.65Z"/><path class="cls-2" d="M307.21,76.94a17.83,17.83,0,0,1,5.66,13.6,17.79,17.79,0,0,1-5.66,13.59,19.39,19.39,0,0,1-13.74,5.3,19.7,19.7,0,0,1-13.92-5.3,17.75,17.75,0,0,1-5.69-13.59,17.78,17.78,0,0,1,5.69-13.6,19.7,19.7,0,0,1,13.92-5.3A19.39,19.39,0,0,1,307.21,76.94Zm-6.67,21.35a11.24,11.24,0,0,0,0-15.5,9.89,9.89,0,0,0-7.07-3,10.91,10.91,0,0,0-7.25,18.54,10.27,10.27,0,0,0,7.25,3A9.92,9.92,0,0,0,300.54,98.29Z"/><path class="cls-2" d="M375.17,75.5A14.15,14.15,0,0,1,379.28,86v22.5h-9.44V87.94a7.88,7.88,0,0,0-2-5.66,6.68,6.68,0,0,0-5.05-2.13,7.46,7.46,0,0,0-6.13,2.78q-2.24,2.77-2.23,8.26v17.3h-9.52V87.94a7.88,7.88,0,0,0-2-5.66,6.68,6.68,0,0,0-5.05-2.13,7.29,7.29,0,0,0-6.05,2.74q-2.17,2.74-2.17,8.3v17.3h-9.52v-36h9.52v3q4-4,10.75-4,7.78,0,11.82,5.91,4.77-5.91,13.13-5.91A13.54,13.54,0,0,1,375.17,75.5Z"/><path class="cls-2" d="M415.13,75q4.26,3.57,4.25,10v23.51H410.3v-2.95q-4.19,4-11,4-6.21,0-9.95-3.24a10.71,10.71,0,0,1-3.75-8.51,10.35,10.35,0,0,1,3.78-8.4q3.79-3.14,10.49-3.14H410.3v-.57a5.87,5.87,0,0,0-1.7-4.4,6,6,0,0,0-4.43-1.66q-6.42,0-7.5,5.26l-9.09-1.8A13.22,13.22,0,0,1,393,74.64a17.52,17.52,0,0,1,10.56-3.21Q410.88,71.43,415.13,75Zm-7.64,24.66a7.2,7.2,0,0,0,2.81-5.73v-.44H399.77a5.71,5.71,0,0,0-3.64,1.12,3.62,3.62,0,0,0-1.41,3,3.72,3.72,0,0,0,1.7,3.21,7.51,7.51,0,0,0,4.43,1.19A10.07,10.07,0,0,0,407.49,99.66Z"/><path class="cls-2" d="M464.09,108.49h-9.51v-3.1q-4.54,4.19-11.9,4.18a16.76,16.76,0,0,1-12.4-5.4A18.76,18.76,0,0,1,425,90.54a18.83,18.83,0,0,1,5.3-13.67,16.73,16.73,0,0,1,12.37-5.44q7.35,0,11.9,4.18V53h9.51Zm-12.61-10.2a10.33,10.33,0,0,0,3.1-7.75,10.43,10.43,0,0,0-3.1-7.79,9.93,9.93,0,0,0-7.14-3,9.63,9.63,0,0,0-7.25,3,10.84,10.84,0,0,0-2.85,7.86,10.71,10.71,0,0,0,2.85,7.82,9.67,9.67,0,0,0,7.25,2.92A10,10,0,0,0,451.48,98.29Z"/><path class="cls-2" d="M480.76,97q.64,4.91,7.42,4.9a7.33,7.33,0,0,0,4.11-1,3,3,0,0,0,1.52-2.59q0-2.39-4-3.25l-7.35-1.51A14.44,14.44,0,0,1,475,89.89a9,9,0,0,1-2.63-6.56,10.62,10.62,0,0,1,4-8.58q4-3.33,10.71-3.32a17.77,17.77,0,0,1,10.49,3,12,12,0,0,1,5.16,7.71l-9.09,1.8a5.12,5.12,0,0,0-2.13-3.6,7.64,7.64,0,0,0-4.72-1.37A5.55,5.55,0,0,0,483,80a3.25,3.25,0,0,0-1.15,2.49q0,2.31,3.24,3l8.58,1.87a12.82,12.82,0,0,1,7,3.72,9.3,9.3,0,0,1,2.42,6.45,10.34,10.34,0,0,1-4.29,8.94q-4.29,3.11-11.5,3.1a21.46,21.46,0,0,1-11-2.63,10.12,10.12,0,0,1-5.19-8Z"/><path class="cls-2" d="M63.64,143.64a53,53,0,1,1,53-53A53,53,0,0,1,63.64,143.64Zm0-98.34A45.37,45.37,0,1,0,109,90.67,45.42,45.42,0,0,0,63.64,45.3Z"/><path class="cls-2" d="M63.64,43.18A12.14,12.14,0,1,1,75.78,31,12.15,12.15,0,0,1,63.64,43.18Zm0-16.67A4.53,4.53,0,1,0,68.16,31,4.53,4.53,0,0,0,63.64,26.51Z"/><path class="cls-1" d="M76.06,68.76,58.56,81.21a15.57,15.57,0,0,0-5.28,7.87l-5.05,21.6c-.64,2.72.68,3.59,2.93,1.94L69,99.55a15.9,15.9,0,0,0,5.24-7.94l4.83-20.85C79.68,68.05,78.33,67.15,76.06,68.76ZM67.55,93.33a4.81,4.81,0,1,1-1.34-6.67A4.82,4.82,0,0,1,67.55,93.33Z"/></svg>