<svg id="Capa_1" data-name="Capa 1" xmlns="http://www.w3.org/2000/svg" viewBox="0 0 1758 598"><defs><style>.cls-1{opacity:0.51;}.cls-2{fill:#c4b9b6;}</style></defs><g class="cls-1"><path class="cls-2" d="M971.39,493.29c-1.11,3-2.78,6.46-2.19,8.76C971.16,501.41,971.58,497.66,971.39,493.29Z"/><path class="cls-2" d="M1012.76,466.72a49.33,49.33,0,0,1,5.09,2.08A16.88,16.88,0,0,0,1012.76,466.72Z"/><path class="cls-2" d="M1022.14,449.49c.22.95.45,1.9.67,2.9A10,10,0,0,0,1022.14,449.49Z"/><path class="cls-2" d="M886.31,136c0,3.82.14,7.62.34,11.4C887.35,143.19,888.06,137.65,886.31,136Z"/><path class="cls-2" d="M907.74,88.24c2,4,3.84,7.81,5.64,11.67C912.15,95.11,910.33,89.32,907.74,88.24Z"/><path class="cls-2" d="M878.52,79.19a8.07,8.07,0,0,1-1.19-1.74A6.21,6.21,0,0,0,878.52,79.19Z"/><path class="cls-2" d="M970.58,139.63c.6,3.4,1.25,6.82,1.86,10.24C972.58,145.8,972.42,141.07,970.58,139.63Z"/><path class="cls-2" d="M927,197.57a10.3,10.3,0,0,1-1.23-1.33C925.73,196.51,926.24,197,927,197.57Z"/><path class="cls-2" d="M1064.15,205.17c.66-1.54,1.42-3.06,2-4.62A27.32,27.32,0,0,0,1064.15,205.17Z"/><path class="cls-2" d="M1017.61,81.16c-.23-3-.48-6-.69-9A52.13,52.13,0,0,0,1017.61,81.16Z"/><path class="cls-2" d="M985.54,269.23a13.2,13.2,0,0,0,.6-4.6C986.05,266.22,985.76,267.71,985.54,269.23Z"/><path class="cls-2" d="M832.9,589.3c-.67,4-1.41,7.92-2.1,11.88C832.91,599.51,833.08,594.06,832.9,589.3Z"/><path class="cls-2" d="M787.16,419.7c-.39.72-.72,1.42-1.15,2.17A7.22,7.22,0,0,0,787.16,419.7Z"/><path class="cls-2" d="M938.69,580.32a47.94,47.94,0,0,0,1.76,8C939.83,585.66,939.28,583,938.69,580.32Z"/><path class="cls-2" d="M1208.56,493.35c.41,3.12.76,6.26,1.14,9.42C1211,501.05,1209.81,496.94,1208.56,493.35Z"/><path class="cls-2" d="M1134.38,404.21c-.42.77-.76,1.54-1.23,2.35A7.24,7.24,0,0,0,1134.38,404.21Z"/><path class="cls-2" d="M1163,480.83a11.81,11.81,0,0,0,1.48,2.14C1164,482.34,1163.49,481.59,1163,480.83Z"/><path class="cls-2" d="M1010,212.61a13.05,13.05,0,0,0,1.21-3.58C1010.75,210.26,1010.37,211.41,1010,212.61Z"/><path class="cls-2" d="M776,460.4a50.49,50.49,0,0,1,5,2.23A15.79,15.79,0,0,0,776,460.4Z"/><path class="cls-2" d="M716.75,523.74c-.48,1.44-1,2.89-1.49,4.38A14.91,14.91,0,0,0,716.75,523.74Z"/><path class="cls-2" d="M785.19,441.56c.22,1,.45,2.08.67,3.15A11.34,11.34,0,0,0,785.19,441.56Z"/><path class="cls-2" d="M622.71,454.78a26,26,0,0,0-1.42,3.12A4.88,4.88,0,0,0,622.71,454.78Z"/><path class="cls-2" d="M718.76,476.2a69,69,0,0,1,7.58,2.74A23.26,23.26,0,0,0,718.76,476.2Z"/><path class="cls-2" d="M682.3,197.71a15.22,15.22,0,0,0,4.74-3.13A46.8,46.8,0,0,1,682.3,197.71Z"/><path class="cls-2" d="M584.87,238.15a11.47,11.47,0,0,0,.27-3.3C585.05,236,585,237.05,584.87,238.15Z"/><path class="cls-2" d="M254.92,266.26c-.85,1.57.6,5.27,1.19,7.82C257,270.2,256.85,267.18,254.92,266.26Z"/><path class="cls-2" d="M219.07,298.47c.17.74.35,1.47.53,2.21A2.74,2.74,0,0,0,219.07,298.47Z"/><path class="cls-2" d="M251.42,223.61a9,9,0,0,0-.59-3.06C251,221.6,251.23,222.6,251.42,223.61Z"/><path class="cls-2" d="M1463.1,351.08a2.06,2.06,0,0,0,.55.05C1463.89,351.11,1463.57,351.09,1463.1,351.08Z"/><path class="cls-2" d="M1493.54,353.67c-3.15-.91-5.09-.59-8.12-.69,0-.12,5.36.44,5.54.5Z"/><path class="cls-2" d="M1274.57,346c0-.09-1.17,0,0,0Z"/><path class="cls-2" d="M1277.05,346c1.09,0,.13-.07,0,0Z"/><path class="cls-2" d="M1676.78,368.34c3.64.15,1.82.08,0,0Z"/><path class="cls-2" d="M1676.78,368.34Z"/><path class="cls-2" d="M719.64,484.85c.44,1.19.86,2.32,1.33,3.54A13.16,13.16,0,0,0,719.64,484.85Z"/><path class="cls-2" d="M675.08,595.28a5.69,5.69,0,0,0-.55,2A7.65,7.65,0,0,1,675.08,595.28Z"/><path class="cls-2" d="M700.83,567.91c-.53,3.7-1.11,7.39-1.64,11.07C701.12,577.36,701.11,572.25,700.83,567.91Z"/><path class="cls-2" d="M1646.82,195.86c-.56,2.53,1.7,6.39,2.74,9.43C1649.63,200.34,1649,196.49,1646.82,195.86Z"/><path class="cls-2" d="M1688.5,228a16.11,16.11,0,0,0,5.37-2.23A48.89,48.89,0,0,1,1688.5,228Z"/><path class="cls-2" d="M1063.7,589.91a9.64,9.64,0,0,0,2,2.79A32.53,32.53,0,0,1,1063.7,589.91Z"/><path class="cls-2" d="M1054.05,393.67c-1.37-.91-2.65-1.83-4-2.75A15.8,15.8,0,0,0,1054.05,393.67Z"/><path class="cls-2" d="M1046.6,494.48a10.57,10.57,0,0,0-.43,1.48C1046.36,495.48,1046.44,495,1046.6,494.48Z"/><path class="cls-2" d="M1724.5,583.85c0,.11-.08.21-.12.31C1724.42,584.05,1724.45,584,1724.5,583.85Z"/><path class="cls-2" d="M1724.65,583.49c-.06.13-.1.24-.15.36C1724.54,583.74,1724.6,583.61,1724.65,583.49Z"/><path class="cls-2" d="M1724.05,585.22a1.84,1.84,0,0,0,0,.92A2.24,2.24,0,0,1,1724.05,585.22Z"/><path class="cls-2" d="M1753,563.52c1.85-1.46,1.17-6.55.13-11.41C1753,555.9,1752.82,559.68,1753,563.52Z"/><path class="cls-2" d="M1724.38,584.16a4.42,4.42,0,0,0-.33,1.06A6.59,6.59,0,0,1,1724.38,584.16Z"/><path class="cls-2" d="M1743.33,220.69a32.61,32.61,0,0,1,2.6-6.36A16.33,16.33,0,0,0,1743.33,220.69Z"/><path class="cls-2" d="M1721.65,259.15c0,.08-.08.15-.1.22l-.06.53C1721.54,259.65,1721.59,259.4,1721.65,259.15Z"/><path class="cls-2" d="M1555.15,365.94a30.84,30.84,0,0,1,5.28-2A14.87,14.87,0,0,0,1555.15,365.94Z"/><path class="cls-2" d="M1580.73,400.81a108.06,108.06,0,0,1,11.71,4.82A80.17,80.17,0,0,0,1580.73,400.81Z"/><path class="cls-2" d="M1568.9,398.61c2.43,1.95,1.54.05,0,0Z"/><path class="cls-2" d="M1244.06,504.81a50.48,50.48,0,0,1,4.7,8.21A27.05,27.05,0,0,0,1244.06,504.81Z"/><path class="cls-2" d="M1233.29,561.12a15.09,15.09,0,0,1-.69,4.4A40.18,40.18,0,0,0,1233.29,561.12Z"/><path class="cls-2" d="M1193.28,519.22a1.45,1.45,0,0,1-1.18.19A2.26,2.26,0,0,0,1193.28,519.22Z"/><path class="cls-2" d="M1214.56,450.36s-.06-.09-.1-.13l-.58-.53C1214.11,449.91,1214.33,450.13,1214.56,450.36Z"/><path class="cls-2" d="M1216.72,560.4c-.92,2.79,0,2.5,0,0Z"/><path class="cls-2" d="M1193.3,519.21h0Z"/><path class="cls-2" d="M1382,425.25a21.16,21.16,0,0,0-7.42-.05A43.81,43.81,0,0,1,1382,425.25Z"/><path class="cls-2" d="M1416,474c6.34,2.86,12.63,5.69,18.55,8.66C1428.6,479.69,1422.37,476.67,1416,474Z"/><path class="cls-2" d="M1398.08,467.78c3.75,3.1,2.27.58,0,0Z"/><path class="cls-2" d="M1437.12,488.3c2,.9,4,1.7,5.91,2.7C1441.11,490,1439.14,489.15,1437.12,488.3Z"/><path class="cls-2" d="M1326.51,413s-.06,0-.1,0c-.25,0-.53-.06-.77,0C1325.93,412.92,1326.22,413,1326.51,413Z"/><path class="cls-2" d="M1353.39,470.05a3,3,0,0,1-.54,1.2A1.69,1.69,0,0,0,1353.39,470.05Z"/><path class="cls-2" d="M1383.6,219.25a29,29,0,0,1-.51-5.91A14,14,0,0,0,1383.6,219.25Z"/><path class="cls-2" d="M1437.17,177.47c-1,1.67-1.94,3.39-2.89,5.13.42-.83-.66,1.09-.17.29-.13.25-.27.48-.4.73.17-.29.33-.59.5-.87C1435.14,181,1436.12,179.21,1437.17,177.47Z"/><path class="cls-2" d="M1428.21,194.14c1.86-3.55,3.66-7.1,5.5-10.52A105,105,0,0,0,1428.21,194.14Z"/><path class="cls-2" d="M1374.89,257.35c0,.08-.07.16-.08.25s0,.32,0,.47C1374.85,257.83,1374.87,257.59,1374.89,257.35Z"/><path class="cls-2" d="M1361.34,245.66c0,.48-.15.94-.2,1.41C1361.37,246.26,1361.46,245.73,1361.34,245.66Z"/><path class="cls-2" d="M1631.17,174.35a11.21,11.21,0,0,0-1.36-3.29C1630.29,172.18,1630.72,173.26,1631.17,174.35Z"/><path class="cls-2" d="M1698.54,243.89a9.1,9.1,0,0,0,.54-2.72C1698.9,242.1,1698.72,243,1698.54,243.89Z"/><path class="cls-2" d="M1594.87,283.14c.06.27.06.56.11.84C1595,283.52,1595,283.18,1594.87,283.14Z"/><path class="cls-2" d="M1602.84,287.36c.35-2,.66-3.92,1-5.67A26.82,26.82,0,0,0,1602.84,287.36Z"/><path class="cls-2" d="M1525.26,450.1a21.41,21.41,0,0,0,4.22-1.25C1528.06,449.32,1526.67,449.69,1525.26,450.1Z"/><path class="cls-2" d="M1383.79,366.5c1.15-.21,2.41-.45,3.48-.63A17.34,17.34,0,0,0,1383.79,366.5Z"/><path class="cls-2" d="M1257.49,415.83c-.37.78-.68,1.54-1.08,2.36A7.73,7.73,0,0,0,1257.49,415.83Z"/><path class="cls-2" d="M1264.64,538.83a18.1,18.1,0,0,0-.48,4.82C1264.3,542,1264.48,540.44,1264.64,538.83Z"/><path class="cls-2" d="M950,106.11a23.1,23.1,0,0,0-3.13-4.48C948,103.13,948.93,104.61,950,106.11Z"/><path class="cls-2" d="M1030.4,224.9a24.29,24.29,0,0,0,.84-4.85C1031,221.69,1030.69,223.29,1030.4,224.9Z"/><path class="cls-2" d="M1009.57,271.15l3.2-2.7A31.24,31.24,0,0,0,1009.57,271.15Z"/><path class="cls-2" d="M994.2,50.73a31.49,31.49,0,0,0-4.32-4.19C991.4,47.9,992.79,49.32,994.2,50.73Z"/><path class="cls-2" d="M1051.64,383.53c2.07-.1,4.13-.19,6.14-.17A24,24,0,0,0,1051.64,383.53Z"/><path class="cls-2" d="M820.67,38.49c1.88,1.22,3.61,2.51,5.36,3.8A33.88,33.88,0,0,0,820.67,38.49Z"/><path class="cls-2" d="M1169.59,126.2a80.12,80.12,0,0,0-1.52-11.79C1166.68,116.26,1168.21,121.76,1169.59,126.2Z"/><path class="cls-2" d="M1206.23,246.68a4,4,0,0,0-1.39-1.55A7.36,7.36,0,0,1,1206.23,246.68Z"/><path class="cls-2" d="M1257.05,205c1.59-2.9,3.08-5.83,4.37-8.81C1259.57,196.78,1258.13,201,1257.05,205Z"/><path class="cls-2" d="M1290.42,185.21a5.81,5.81,0,0,0,.88-1.94A5.85,5.85,0,0,1,1290.42,185.21Z"/><path class="cls-2" d="M1095.39,173.35a84.66,84.66,0,0,0,1.6-10.54C1095.24,163.86,1095.15,168.7,1095.39,173.35Z"/><path class="cls-2" d="M1094.7,563c-2,3.33-4,6.67-6,10.14C1091,572.62,1093.15,567.46,1094.7,563Z"/><path class="cls-2" d="M1271.53,427.84a8.26,8.26,0,0,0,1.18,2.36A13,13,0,0,1,1271.53,427.84Z"/><path class="cls-2" d="M1306.67,469.19c1.11,5,1.88,10,3,15.26C1311.24,482.65,1309.57,476.11,1306.67,469.19Z"/><path class="cls-2" d="M1303.12,408.83a6.29,6.29,0,0,1-1.6.47A3.13,3.13,0,0,0,1303.12,408.83Z"/><path class="cls-2" d="M902.55,146.33a40,40,0,0,0-5.81-8.25C896.75,140.39,900.24,143.73,902.55,146.33Z"/><path class="cls-2" d="M884.92,104.46a16.78,16.78,0,0,0-3.92-1.38A21.49,21.49,0,0,1,884.92,104.46Z"/><path class="cls-2" d="M884.92,104.46a47.52,47.52,0,0,1,8.6,5.54A30.47,30.47,0,0,0,884.92,104.46Z"/><path class="cls-2" d="M819.08,571.14a4.8,4.8,0,0,1-.83-.52A1.92,1.92,0,0,0,819.08,571.14Z"/><path class="cls-2" d="M598.57,565.48c1.7-1.7.81-7.21,0-11.4C598.47,557.87,598.41,561.66,598.57,565.48Z"/><path class="cls-2" d="M554.84,80.3a75.22,75.22,0,0,0-7.57-8.76C547.48,74.16,552.12,77.76,554.84,80.3Z"/><path class="cls-2" d="M672.85,140.89c.63-3.44,1.24-6.88,1.65-10.38C672.67,131.66,672.63,136.63,672.85,140.89Z"/><path class="cls-2" d="M724,104.68a1.79,1.79,0,0,0-1-.2A4,4,0,0,1,724,104.68Z"/><path class="cls-2" d="M452.12,210a8.68,8.68,0,0,1,2-.27A5.08,5.08,0,0,0,452.12,210Z"/><path class="cls-2" d="M487.44,198.32a7.5,7.5,0,0,0-.48-2.57A11,11,0,0,1,487.44,198.32Z"/><path class="cls-2" d="M450.77,156.53a78,78,0,0,0-5.5-9C444.61,149.31,447.68,153.11,450.77,156.53Z"/><path class="cls-2" d="M498.14,126a111.44,111.44,0,0,0-9-12C488.67,116.57,493.63,121.67,498.14,126Z"/><path class="cls-2" d="M450,497.54c-.7-.16-1.21-.2-1.37-.05A4,4,0,0,0,450,497.54Z"/><path class="cls-2" d="M583.32,421.41a5.92,5.92,0,0,0,.92,1.92A9.47,9.47,0,0,1,583.32,421.41Z"/><path class="cls-2" d="M714.31,219a7.29,7.29,0,0,1,1.82.09A3.61,3.61,0,0,0,714.31,219Z"/><path class="cls-2" d="M708.41,141.6c-.58,3.54-.91,7-1.22,10.52C708.6,148,709.94,143.09,708.41,141.6Z"/><path class="cls-2" d="M553.06,222.85a7.29,7.29,0,0,1,1.82.09A3.5,3.5,0,0,0,553.06,222.85Z"/><path class="cls-2" d="M347.63,219a3.84,3.84,0,0,0-1.63.56A8.34,8.34,0,0,1,347.63,219Z"/><path class="cls-2" d="M307.85,141.93c-3.28-2.13-6.38-3.69-8.76-3.72C301.09,138.17,304.76,140.16,307.85,141.93Z"/><path class="cls-2" d="M377.88,201.16a8.59,8.59,0,0,0-1.17-2.59A12,12,0,0,1,377.88,201.16Z"/><path class="cls-2" d="M325.81,170.51a55.07,55.07,0,0,0-10.47-5.29C315.87,166.77,321,168.77,325.81,170.51Z"/><path class="cls-2" d="M438.86,176.15a50.94,50.94,0,0,0-1.7-7.53C436.21,169.75,437.44,173,438.86,176.15Z"/><path class="cls-2" d="M250.5,563.94a98,98,0,0,1-12.35,6.74C241.07,571.94,245.81,568.72,250.5,563.94Z"/><path class="cls-2" d="M220.86,553.38a13.87,13.87,0,0,1-1.71-1.59C218.54,552.17,219.46,552.77,220.86,553.38Z"/><path class="cls-2" d="M306.59,520.5a6.87,6.87,0,0,1-1.59-1.11A3.92,3.92,0,0,0,306.59,520.5Z"/><path class="cls-2" d="M355.3,488.34c-2,2.63-4.13,5.25-5.94,8C351.35,496.31,353.49,492.82,355.3,488.34Z"/><path class="cls-2" d="M354.92,447.46a3.67,3.67,0,0,0-.4,1.41A6.53,6.53,0,0,1,354.92,447.46Z"/><path class="cls-2" d="M567.25,518.75c.16,3.56.32,7.13.64,10.79C569.43,528.76,568.42,523.4,567.25,518.75Z"/><path class="cls-2" d="M249.58,465.37a9.31,9.31,0,0,1,1.4-1.3A5.79,5.79,0,0,0,249.58,465.37Z"/><path class="cls-2" d="M280.64,482.25a4.37,4.37,0,0,0,1.44,1.46A7.66,7.66,0,0,1,280.64,482.25Z"/><path class="cls-2" d="M297.24,220.75a46.78,46.78,0,0,0,3.41-7.52C299.49,213.48,298.27,216.68,297.24,220.75Z"/><path class="cls-2" d="M260,246.63a11.29,11.29,0,0,1,1.71,1.07A6.1,6.1,0,0,0,260,246.63Z"/><path class="cls-2" d="M295,260.48a6.13,6.13,0,0,1-1,1.18A3.57,3.57,0,0,0,295,260.48Z"/><path class="cls-2" d="M574.51,245.27a11.29,11.29,0,0,1,1.71,1.07A6.1,6.1,0,0,0,574.51,245.27Z"/><path class="cls-2" d="M483,270.75a6,6,0,0,1-1,1.17A3.6,3.6,0,0,0,483,270.75Z"/><path class="cls-2" d="M822.46,229.57a40.25,40.25,0,0,0,3.5-6.89C824.79,222.9,823.53,225.85,822.46,229.57Z"/><path class="cls-2" d="M126,433a5.48,5.48,0,0,1,.87-1A3.06,3.06,0,0,0,126,433Z"/><path class="cls-2" d="M117.87,483.73a4.39,4.39,0,0,0,1.11,1.06A10,10,0,0,1,117.87,483.73Z"/><path class="cls-2" d="M92.72,520.34c-1.16,3.7-2.33,7.42-3.21,11.27C90.74,531.57,91.87,526.54,92.72,520.34Z"/><path class="cls-2" d="M208.55,481.36c-1.2,2.5-2.45,5-3.51,7.59C206.69,488.65,207.86,485.43,208.55,481.36Z"/><path class="cls-2" d="M135.38,125.06a5.77,5.77,0,0,0-1.48-2.32A5.67,5.67,0,0,1,135.38,125.06Z"/><path class="cls-2" d="M135.58,125.61c-.06-.19-.13-.37-.2-.55C135.45,125.23,135.51,125.43,135.58,125.61Z"/><path class="cls-2" d="M131,214.13a8.09,8.09,0,0,1,1.67-.27A4,4,0,0,0,131,214.13Z"/><path class="cls-2" d="M131.8,160.79a61.64,61.64,0,0,0-5.06-9.19C126.05,153.34,128.92,157.26,131.8,160.79Z"/><path class="cls-2" d="M166,201.44a6.4,6.4,0,0,0-.52-2.32A9.37,9.37,0,0,1,166,201.44Z"/><path class="cls-2" d="M76.4,458.87a5,5,0,0,0,1.49,1.33A9.41,9.41,0,0,1,76.4,458.87Z"/><path class="cls-2" d="M29.53,482.25c-2.55,2-5.12,4.08-7.47,6.35C23.73,488.92,26.6,486.09,29.53,482.25Z"/><path class="cls-2" d="M43.22,235.09a36,36,0,0,0-5.38-2.67C37.91,233.4,40.21,234.33,43.22,235.09Z"/><path class="cls-2" d="M36.79,207.62l-.18-.2Z"/><path class="cls-2" d="M36.61,207.42c-.32-.33-.55-.53-.65-.53C36.14,206.91,36.36,207.13,36.61,207.42Z"/><path class="cls-2" d="M350.48,304.79h0Z"/><path class="cls-2" d="M350.47,304.78c-.36-1.3-.81-2.44-1.66-2.9A8.56,8.56,0,0,1,350.47,304.78Z"/><path class="cls-2" d="M407.3,453.58a5.4,5.4,0,0,1,.07-1.43A3.25,3.25,0,0,0,407.3,453.58Z"/><path class="cls-2" d="M166.72,513c1.39-.92,1.08-5,0-9.86A67.61,67.61,0,0,0,166.72,513Z"/><path class="cls-2" d="M148.13,462.35a4.25,4.25,0,0,0-.26,1.83A7.15,7.15,0,0,1,148.13,462.35Z"/><path class="cls-2" d="M87.63,405.13c.13-.25.52-.46.76-.69A2.09,2.09,0,0,0,87.63,405.13Z"/><path class="cls-2" d="M380.71,577.39c-.19-.11-.35-.24-.53-.35L380,577Z"/><path class="cls-2" d="M380.18,577a4.23,4.23,0,0,0,2.41.66,6.3,6.3,0,0,1-2.52-.74Z"/><path class="cls-2" d="M379.93,576.92s.05,0,.07,0l0,0Z"/><path class="cls-2" d="M386,581.79a18.73,18.73,0,0,0-5.33-4.4A23.61,23.61,0,0,1,386,581.79Z"/><path class="cls-2" d="M379.18,576.44c.28.15.51.34.79.49,0,0,.07,0,.1,0Z"/><path class="cls-2" d="M449.71,517.48a8.48,8.48,0,0,0,1.6,2.47C450.72,519.15,450.21,518.32,449.71,517.48Z"/><path class="cls-2" d="M428.05,434.86c-.08,1-.15,1.88-.21,2.64Q428,436.18,428.05,434.86Z"/><path class="cls-2" d="M396.33,537.73c-1,.81-1.84,1.5-2.2,1.83C394.83,538.94,395.59,538.34,396.33,537.73Z"/><path class="cls-2" d="M427.84,437.5c-.08.73-.06,1.45-.18,2.19C427.68,439.69,427.74,438.8,427.84,437.5Z"/><path class="cls-2" d="M379.18,576.44l-.08,0Z"/><path class="cls-2" d="M389.81,516.4a9.07,9.07,0,0,0,1.62,2.49C390.84,518.08,390.32,517.25,389.81,516.4Z"/><path class="cls-2" d="M339.42,532.2c-2.61,1.65-4.84,3.1-5.53,3.61C335.71,534.62,337.57,533.42,339.42,532.2Z"/><path class="cls-2" d="M371.59,437.17a52.12,52.12,0,0,0-1.29,5.38A44.2,44.2,0,0,0,371.59,437.17Z"/><path class="cls-2" d="M210.9,201.73a9.41,9.41,0,0,0-2-2.46C209.67,200.1,210.22,200.91,210.9,201.73Z"/><path class="cls-2" d="M613,99.4c1.51,1.06,2.9,2.17,4.3,3.27A25.42,25.42,0,0,0,613,99.4Z"/><path class="cls-2" d="M435.1,52.23a43.35,43.35,0,0,0-6.77-3.49C430.67,49.88,432.88,51.05,435.1,52.23Z"/><path class="cls-2" d="M381.59,318.45a3.48,3.48,0,0,0,.14-1.8C381.71,317.29,381.62,317.84,381.59,318.45Z"/><path class="cls-2" d="M774,490.5a27.59,27.59,0,0,0,2.19,4.56C775.57,493.51,774.75,492,774,490.5Z"/><path class="cls-2" d="M798.73,200.9a13.23,13.23,0,0,0,1.21-3.59C799.51,198.55,799.13,199.69,798.73,200.9Z"/><path class="cls-2" d="M723.61,323.48l2.19.34A9.7,9.7,0,0,0,723.61,323.48Z"/><path class="cls-2" d="M753.75,201.65a12.88,12.88,0,0,0,1.22-3.6C754.54,199.29,754.16,200.44,753.75,201.65Z"/><path class="cls-2" d="M874.93,427.65c-.17,1.28-.29,2.53-.53,3.86A9.79,9.79,0,0,0,874.93,427.65Z"/><path class="cls-2" d="M930.28,570.27a24.93,24.93,0,0,0,1,5.07C930.94,573.64,930.6,572,930.28,570.27Z"/><path class="cls-2" d="M860.21,564.18c-.16-1.71-.25-3.35-.39-5A19,19,0,0,0,860.21,564.18Z"/><path class="cls-2" d="M1133.8,198.23c.07,1.51.13,3,.18,4.42A14.72,14.72,0,0,0,1133.8,198.23Z"/><path class="cls-2" d="M1079.09,322.3l2.1-.06A9.57,9.57,0,0,0,1079.09,322.3Z"/><path class="cls-2" d="M835.45,257c1.3,1,2.68,2,4.09,2.93C838.21,258.87,836.84,257.88,835.45,257Z"/><path class="cls-2" d="M772.83,194.31l0,0S772.81,194.32,772.83,194.31Z"/><path class="cls-2" d="M772.83,194.31c.66-.65,1.1-1.19,1.11-1.5A2.83,2.83,0,0,1,772.83,194.31Z"/><path class="cls-2" d="M691.49,236.8a12.71,12.71,0,0,1,2,1.18A7.26,7.26,0,0,0,691.49,236.8Z"/><path class="cls-2" d="M572.82,496.36a63.6,63.6,0,0,0-3.84-8.89C570.14,492.24,571.54,496.1,572.82,496.36Z"/><path class="cls-2" d="M564.78,444a7.06,7.06,0,0,1,1,1.2A3.77,3.77,0,0,0,564.78,444Z"/><path class="cls-2" d="M534.52,460.16a11.27,11.27,0,0,1-1.7,1.28A6.18,6.18,0,0,0,534.52,460.16Z"/><path class="cls-2" d="M378.06,303.58c.42-.19.82-.34,1.21-.5A9.65,9.65,0,0,0,378.06,303.58Z"/><path class="cls-2" d="M379.27,303.08a8.79,8.79,0,0,1,3-.5C381.6,302.28,380.49,302.6,379.27,303.08Z"/><path class="cls-2" d="M401.43,269.78a5.16,5.16,0,0,1-.83,1.05A3.06,3.06,0,0,0,401.43,269.78Z"/><path class="cls-2" d="M449.73,247.19a6.24,6.24,0,0,1,1.28.07A2.86,2.86,0,0,0,449.73,247.19Z"/><path class="cls-2" d="M240,454a5.92,5.92,0,0,1-1.28.12A2.92,2.92,0,0,0,240,454Z"/><path class="cls-2" d="M234.37,508.19c.42,2.89.86,5.81,1.45,8.81C237.08,515.68,235.57,511.33,234.37,508.19Z"/><path class="cls-2" d="M316.64,514.7c1.52,3.41,3.06,6.81,4.89,10.21C322.54,523,319.51,518.46,316.64,514.7Z"/><path class="cls-2" d="M300.1,444a3.79,3.79,0,0,0,1.86-.65A8,8,0,0,1,300.1,444Z"/><path class="cls-2" d="M61.56,339.25c-.93-.42-.23,1.7,0,0Z"/><path class="cls-2" d="M408.93,454c1.08,3.29,2,6.62,3.28,10C413.15,462.57,411.39,458.3,408.93,454Z"/><path class="cls-2" d="M407.1,418.23a4.19,4.19,0,0,1-.78.2A1.8,1.8,0,0,0,407.1,418.23Z"/><path class="cls-2" d="M951.62,449a7.71,7.71,0,0,0,1.24,2A11.71,11.71,0,0,1,951.62,449Z"/><path class="cls-2" d="M1082.81,267.18a11.45,11.45,0,0,1,1.17-2A7.64,7.64,0,0,0,1082.81,267.18Z"/><path class="cls-2" d="M1124.74,223.3c-1.29,2.33-2.38,4.72-3.43,7.12C1123.3,227.83,1125.43,224.68,1124.74,223.3Z"/><path class="cls-2" d="M1340.37,454.5c2.14,2.69,4.29,5.38,6.72,8C1347.51,460.66,1343.85,457.31,1340.37,454.5Z"/><path class="cls-2" d="M1310.51,398a3.39,3.39,0,0,0,1.49-1A6.19,6.19,0,0,1,1310.51,398Z"/><path class="cls-2" d="M1454.35,236c4.29-4,7.58-7.85,7.14-9.56C1458.85,229.51,1456.65,232.78,1454.35,236Z"/><path class="cls-2" d="M1413,260.3a11.44,11.44,0,0,1,1.49-1.67A7.5,7.5,0,0,0,1413,260.3Z"/><path class="cls-2" d="M1433,281.38a4.93,4.93,0,0,1,1,.6A2.5,2.5,0,0,0,1433,281.38Z"/><path class="cls-2" d="M1673,247.8a10.75,10.75,0,0,1,1.23-1.91A7.49,7.49,0,0,0,1673,247.8Z"/><path class="cls-2" d="M1709.81,218.11c3.69-4.63,6.41-9,5.67-10.74C1713.3,210.86,1711.62,214.51,1709.81,218.11Z"/><path class="cls-2" d="M1696.23,265.71a5.51,5.51,0,0,1,1.07.46A2.43,2.43,0,0,0,1696.23,265.71Z"/><path class="cls-2" d="M1185.18,274.63a10.4,10.4,0,0,1,1.23-1.91A7.15,7.15,0,0,0,1185.18,274.63Z"/><path class="cls-2" d="M9.43,312c-1.83.15-3.34.45-3.84,1.14A11.42,11.42,0,0,1,9.43,312Z"/><path class="cls-2" d="M9.43,312c.45,0,.93-.06,1.41-.08C10.37,311.9,9.88,311.9,9.43,312Z"/></g></svg>