<svg id="Capa_1" data-name="Capa 1" xmlns="http://www.w3.org/2000/svg" viewBox="0 0 1479 150"><defs><style>.cls-1{fill:#54541e;}.cls-2{fill:#fff;}</style></defs><path class="cls-1" d="M313.71,124.42H1.84S3.2,122.53,5,119.94c2-2.83,4.44-6.5,6.23-9.46,3.42-5.68,10.32-9.29,12.28-11.1,1.27-1.18,3.65-3.15,5.9-4.83,1.2-.9,2.35-1.71,3.29-2.27a27.65,27.65,0,0,0,4-3.44h0c3-2.89,6.21-6.58,6.65-7.75.69-1.81,1.18-3.47,2.74-4.64.62-.47,1.21-1,1.88-1.6a10.65,10.65,0,0,1,4-2.22c3-.88,3.72.49,6.07,3.37s10.71,4.9,10.71,4.9l16-21.53,25.83-14.91s9.68-16.1,15.45-19.52,7.93-6.31,10-10.22c3.62-.49,11.25,2.59,15.31,6.11s8,8.61,11.25,11.59,12.87,7.39,12.87,7.39,9.73-8,12-7.92,4.73.65,8.31,2.54,2.22,1.89,8.16,7.5a45.91,45.91,0,0,0,7,5.26c4.5,2.85,9,5.11,11.24,7.26,6.15,9.19,12.12,13.64,16.32,14.11a5.35,5.35,0,0,0,2.72-.35c4-1.76,14.74-8.09,14.74-8.09s10.56,12.13,12.2,13.5,3.78.59,4,3.27,5,10.23,5,10.23,1.34.57,3.29,1.28a59.72,59.72,0,0,0,9,2.64c.39,3,2.87,5.28,5.41,9.32S301,105.51,305.23,112l.14.22C309.57,118.68,313.71,124.42,313.71,124.42Z"/><path class="cls-2" d="M209.06,104.85c2.12-3.29,3.36-4,4.8-4.89a10.89,10.89,0,0,0,4.2-3.65c1-1.76,2.58-5.22,2.58-5.22l-6.41,4.67-4.52,5Z"/><path class="cls-2" d="M238.66,68.55c-4.2-.47-10.17-4.92-16.32-14.11-2.24-2.15-6.74-4.41-11.24-7.26h0l4.78,9.14s-10.42-10.91-12.42-11.39a21.73,21.73,0,0,0-.69,5.91s1.76,1.09,2.4,4.41a30.46,30.46,0,0,0,2.3,6.7,11.47,11.47,0,0,1-3-5c-.53-2.64-4.55-5.58-4.64-7.14s1.22-6.12.63-7.83-3.32-7.09-12.67-8.07a82.93,82.93,0,0,0-9.44,5.87,35.32,35.32,0,0,0-6.45,6.6c-1.57,1.86-2.06,3.33-3.62,4.21s-12.13,5.53-13.4,6.36-2.69,4.55-4.16,6.16-3.62,1.47-3.82,2.25-2.88,4-3.71,6.85-1.52,5.26-4.31,6-7.37,7-8.18,8.53c4.76-2.94,8.08-3,9.58-5s3.13-4.56,3.46-6.65,2.67-7.57,7-8.94v5.48s3.46-11.8,4.76-13.24,13.37-6.06,13.37-6.06a19.9,19.9,0,0,1-9.26,8.93c9.33-2.08,9.52-4.82,11-8.41s1.57-4,3.4-5.28,1.3-3.26,2.47-4.31,7.5-5.61,9.85-6.26L186,39.8s1.89,1,2.15,1.86.85,2,2.8,3.39,3.42,9.67,3.51,10.18l-4.16-7.51L188.62,50l-2.34-6c.13.73,2.28,12.49,3.3,14.34-.24-.33-2.11-3-2.66-3.06s-.71,1.59-1.37,1.66-1.56-1.11-1.82-3.85-2.66-4.77-2.86-5c.08.23,1.55,4.11,1.42,6.39s-.52,3.19-.13,4.17,1.89.52,2.22,1.63l5.92,19.84c-.42-.73-5.16-9.08-5.66-9.08s-2.8,3.59-2.8,4.31,1.89,1.23,1.95,2.47S183,81.7,183,83.2s2.94,8.48,3.12,8.92c-.27-.36-3.81-5.23-4.88-9.31-1.11-4.24-3-5.28-3.07-7.3a7.6,7.6,0,0,0-1.5-4.77c-1.23-2-2.14-3.65-2.14-5.34-1,3.26.84,6.45,1,7.76s-1.75,2.61-1,4.69,1.75.75,2.47,4.26-.59,5.66-.39,9.37,1,8.16,4.24,10.18l2.08,5.73c-.15-.26-2.58-4.37-3.84-4.69s-4-1.43-4.56-3.59a25.34,25.34,0,0,0-3.46-8c1.95,6.78.91,10.24,1.69,12.13s3.2,1.5,3.2,1.5-.33,3.59.91,5,1.89,1.3,1.89,1.3a6.16,6.16,0,0,0,.52,5.09,29.42,29.42,0,0,1,2.22,6.39s.26-4.43,1.63-5.87,4.18-3.39,5.15-6.78.66-4.43-.52-4.83-2.41-3.84-2.35-6.84c2,5,3.79,6.06,6.2,7l-1.17,11.68a59.58,59.58,0,0,1,3.58-6c1.7-2.35,1.76-3.78,3.46-4.37a27.44,27.44,0,0,0,3.19-1.37s.85,2.61,2.48,2.67c0,0,2.79.2,2.93,0s.75-1.39.75-1.39a17.86,17.86,0,0,1-1.92-7.38c-.13-4.17,1.83-5.74-2.41-11,3.33,1.3,5,5.87,5.09,8.28a8.21,8.21,0,0,0,1.73,4.43l4.24-4.43a21.69,21.69,0,0,1-4.08-7c-1.18-3.73-2.06-6.84-2.14-7.14.22.38,3.76,6.53,5.47,8s3.23.83,4.78,2.93l1.53-1.26s-3.71-10.73-3.51-10.73,6.26,5.34,6.26,5.34,1.14-5.94,4.58-7.86,12.38-9,12.38-9Zm-43.07-2.7c-.32-1.17-2.44-4.53-1.37-6.75-.29,1.6,2.09,5.51,2.87,6.4s-1.89,4.3-1.82,5.18,3.23,8.15,3.23,8.15-6-6-5.81-7.66S195.92,67,195.59,65.85ZM195,98.4a38.53,38.53,0,0,0-.29,6.45s-2.79-4.64-1.23-8,2.45-4.21,2.5-5.45S193,82.4,193.08,78c1.42,4.31,7.19,14.28,7.19,14.28S195.43,96.05,195,98.4Zm4.26-34.83c0-1.32,1.27-5.82,1-7.78a74.27,74.27,0,0,1,1.08,7.59c.2.93,3.52,5.72,3.62,10.95C203.26,70,199.25,64.89,199.25,63.57Zm15.06,10-1.17.78-4.84-10,4.89,6.11H216s2.06,9.15,2.06,9.29S214.31,73.55,214.31,73.55Zm6.07-8.49c-.25-.22-.93.52-2.3.32s-5-6.8-5.14-6.85c0,0,5.14,4.41,5.53,4.5s2.05-.24,2.49-.14,4.7,7.48,4.7,7.48S220.62,65.28,220.38,65.06Zm10.56,6.58c-.78.59-3.47-2-6-6.06C226.49,66.65,231.72,71.06,230.94,71.64Z"/><path class="cls-2" d="M105.63,96.73c6.26-1.66,14.05-5.12,15.36-6.48s3.69-5.74,6.41-7.64S139,76.71,139,76.71l.81-3s-8.89,5-12.37,6.71-6.74,7.18-8.5,8.74S105.63,96.73,105.63,96.73Z"/><path class="cls-2" d="M164.18,33.57a18,18,0,0,0,1.85,8C162.22,37.31,160.29,30,160.29,30l-7.95-8s0,8.73,2.35,12.87c-4.55-5-3.62-8.37-3.72-9.83s-4.16-5.43-4.16-5.43A24.77,24.77,0,0,0,148.72,25c-2.15-3.13-6.05-9.17-11.2-8.32-.88.15,0,2.11.73,2.89A5.36,5.36,0,0,1,140,22.73c.1,1.37,1.86,4.16,1.86,4.16a16.16,16.16,0,0,1-2.93-3.53c-.79-1.56-2.6-3.71-3.28-3.27s-5.28,3.72-6.7,4.25-8.81,6.41-8.81,6.41-6.84,12.42-7,14.28-5.09,7.39-6.5,9.44-3.14,7.1-4.21,9.79-7.24,12.91-7.24,12.91L100,72s1.13,1.57,1.62,2.45-2.74,7.33-5.33,9.71-16,9.81-16,9.81c7.06-2.6,16.26-6,17.87-8.07s6.22-10.32,6.22-11.74-2.42-2.06-2.58-3.82,2-2.67,2.25-4.86,4.47-12.23,8.77-16.4c.65,3,.23,9.88.23,9.88s3.36-10.63,3.46-17.67c5.62-7.93,7.58-7.68,9.58-10.47s4-3.13,5.92-4.4,3.77-2.15,5.19-1.67A4.42,4.42,0,0,1,139.87,29c-.15,2,2.44,8.66,2.44,8.66a50,50,0,0,1-3-4.4c-.75-1.44-1.23-.49-2,.26s-2.25,2.18-3,2.12-2.29-4.37-2.84-4.31,0,4.4.78,5.64,2.12,3.1,1.89,4.37S135.72,48,135.72,48s-2.77-3.79-3.48-6c0,0-1.37,2.06-1.83,2.09s-3.36-5.48-3.36-5.48.1,4.18.26,5.45,1.4,2,1.57,2.35-.46,3.13.16,4.46,2.41,5.35,2.41,5.35l.92-6.88s6.09-.19,7,.78-.13,3.23,1,5.48,3.65,7.73,2.11,8.32-2-.79-3.65-4.18c-1.3,1.21-4.43,4.57-4.43,4.57l2.12,6.39a19.12,19.12,0,0,1-5.74-6.29c-2.45-4.24-3.62-5.29-3.62-5.29a81.18,81.18,0,0,1,2.44,8c.59,2.8-1.37,8.12-1.37,8.12l12.33-4.79,4.07-4.11L149.9,60l2.5-3.49,3.17-1.81L150.4,44.53l5.93,6.52-1.11-4.57L160,52l3.91-2-6.85-11s7.5,7.11,8.61,7.7,5.51-2.58,5.51-2.58l3.37-4.86Zm-6.09,11.9s-3.68-4.4-5.08-5-3.2-.1-3.62-.65a32.35,32.35,0,0,1-3.75-8.25l4.47,6.29c.68,1,2.15-.55,3.61,1S158.09,45.47,158.09,45.47Z"/><path class="cls-2" d="M58.18,98.2c7.63-5.09,12.13-11.84,16.24-17.31s11.84-17.12,12.91-18.2,12.48-8.17,12.48-8.17-3.53,9.39-4,14.14l7.1-13,5.57-9.49-14.7,8s-4,4.84-5.5,5.48a6.56,6.56,0,0,0-3.23,2.88c-.83,1.37-11.3,12.3-11.3,12.3Z"/><path class="cls-2" d="M30.08,94.74s-7.7,11.68-11,12.85-4,3.2-13.3,13.5L5,119.94c2-2.83,4.44-6.5,6.23-9.46,3.42-5.68,10.32-9.29,12.28-11.1,1.27-1.18,3.65-3.15,5.9-4.83Z"/><path class="cls-2" d="M66.14,80.89s-5.57,8.57-8.48,12.22-8.08,6.43-11.51,7.8A87,87,0,0,0,36.7,106a56.79,56.79,0,0,1,4.85-5.51c2.29-2.15,4.44-2.25,5-2.67s.65-.85,1.36-2.09A8.27,8.27,0,0,0,49,92.43c.16-1.11,4.11-4.53,4.92-5.8a1.56,1.56,0,0,0-.52-2.49c-.75-.44-2.8-.81-3.52-1.3s.06-2.15.75-3.13,1.47-3,.91-3c-2.18-.13-4.89,4.7-5.15,6.72s-3.29,4-5.18,5.38-4.41,6.26-5.71,8-2.12,5.29-3.52,5.94-3.49,3.75-4.21,5.28-1.47,3.56-7.08,4.08c1.88-.38,5-3,5.56-4.34s2.55-5.27,3.84-6.15,2.28-3.18,3.7-5.82a62.13,62.13,0,0,0,3-7h0c3-2.89,6.21-6.58,6.65-7.75.69-1.81,1.18-3.47,2.74-4.64.62-.47,1.21-1,1.88-1.6l2.17,0c2,1,3-.33,4,0s2.25,7.17,6.33,9.58a12.22,12.22,0,0,1-2.78-7.27Z"/><path class="cls-2" d="M40.51,118.61c7.43-1.89,20.15-8.41,21-9.45s7-11,11.48-15.66a37.92,37.92,0,0,0-13.5,14C58.83,108.83,43.05,116.72,40.51,118.61Z"/><path class="cls-2" d="M91.22,66.09c.38.55-.88,2.84-1.34,3.28s-2.62,1-3,2.25-6.6,8-6.6,8,4.86-9,5.89-10.51S91.1,65.92,91.22,66.09Z"/><path class="cls-2" d="M119.94,55.26c-.45,3.88-1,12.49-1.11,14.28s-6.45,5.51-7.37,6.88-3.78,10.37-3.78,10.37,1-9.33,2.61-11.61,6.07-4.43,6.72-7.24S119.94,55.26,119.94,55.26Z"/><path class="cls-2" d="M163,67.78c-6.26,3.42-8.15,4.37-9.13,6s-.68,3.16-1.07,4.51-1.7,4.06-1.67,5c0,0-6.78,4.21-10,10.24,3.26-3.26,7.3-6.85,9.39-7.7s3.72-3.16,4.21-6.23.29-4.17,1-4.89S163,67.78,163,67.78Z"/><path class="cls-2" d="M305.37,112.25l-.83,2.65s-5.9-4.63-6.62-5.12-.81-1.73-3.06-3.26a40.59,40.59,0,0,1-4.71-4,48.34,48.34,0,0,0,3.44,5.13c2,2.6,2.54,7,2.08,7.1a7.47,7.47,0,0,1-3.62-1.4c-1-.85-4.53-7.17-6.09-8s-2.45-1.7-5.32-5.71c1.7,4.37,4.57,6.62,4.83,7.34a5.44,5.44,0,0,1,0,2.12l-1.46-.51a78.74,78.74,0,0,0,4.78,7.62c2.09,2.74,2.12,1,3.92,2.51a28.4,28.4,0,0,1,3.62,4s-3.2-2.5-4.37-3.28-2.32-.62-3.13-1.08-1.24-1.59-3-3.32-5.39-4.8-6-6.34-3.65-5-5.09-6.11-3.3-3-3.3-3a5,5,0,0,0,1.15,1.88c1,1.12.34,2.57.95,4.92.57,2.19,2.91,4.4,3.2,4.66-.31-.24-2.77-2.26-3.3-2.81s-1.17-.12-2.25-1.71.15-3-.8-3.54-2-3.18-2.25-4.48,1.44-3.28.48-4.65-4.3-7.5-4.47-7.58,2.59,8.59,2.59,8.59a17.1,17.1,0,0,0-1.22,2.54,15,15,0,0,0-.49,3.79,17.85,17.85,0,0,0-2.08-3.28c-.76-.68-2-.29-2.79-.61s-6.5-5.18-6.5-5.18,4.84,6.18,5.84,6.92,1.18-.34,2.08.41,2.3,4.6,3.64,6.34.49,3.08,2.06,5.21,2.44,2,3.57,3,.66,2.35.93,4.08,3,4.41,3.22,4.62a60.12,60.12,0,0,1-5.86-3c-.74-.64-.15-1.57-1.27-2.54s-3.87-2.6-5.31-4.31a13.76,13.76,0,0,1-2.42-5.5c-.3-1.27-1.1-1.49-1.74-2.52s-.32-2-.89-2.57a12.9,12.9,0,0,0-2.43-1.54s1.73,1.52,1.9,2.3-.09,1.37.35,2.1,0,1.28-.22,2.06a14.47,14.47,0,0,0,.36,3.5,22.61,22.61,0,0,0-4.91,1.19c-1.42.71-3.33,2.94-3.89,2.89s-4.38-2.57-4.75-2.47-.49.71.44,1.76,2.64,3.69,1.69,4.33-3.28,3.79-4.94,3.69c-.83-.31,0-4,0-4.74s-.62-1.31-2-3.88-2.06-7.8-2.06-7.8l3.1,3.66,4.27-2.45s-2.83-2.64-3.65-3.29-1.92,1.3-3,.16-3.1-6.13-3.22-6.44c.24.26,4.08,4.46,4.3,4.68s.91-.1,1.79-.33,3.52,2.48,4.76,3.79,7,4.36,7,4.36a14.4,14.4,0,0,0-2.38-3.42,41.69,41.69,0,0,1-4-6.28l4,3,.91-2.55c-2-.75-4.86-4.14-5.83-5s-5,0-5.4,0l4.25-4s-1.4-2.77-2.54-5.35c.16,0,9.52,9.16,9.52,9.16l-3.32-5.64,3.75-3.42s-2.84-3.78-2-4.21,8.7,7.12,9.18,7.58c-.29-.5-5.79-9.65-6.8-12.34s-2.39-5.88-2.56-6.28a76.93,76.93,0,0,0,7.19,8.43c-3.06-4.82-3-8.38-2.8-10.1s1.24-3.79.39-4-2,1.63-5.19,3.13-5.44,2-6.36,3.26-2.9,3.46-4.07,4.73-1,1.93-1,3.13-4.65,4.73-4.94,5c.23-.25,4.09-4.37,3.67-5.6s.82-3.13.82-3.13-6.17,3.55-7.24,4.47a18.53,18.53,0,0,0-4.24,6.55c-.55,2.12-.52,5.32-.82,7.08s-3.16,4.76-5.08,10A34.37,34.37,0,0,1,222,95.56c.71-1.6.45-2.35.48-3.78a18.66,18.66,0,0,1,1.86-6.56c.92-1.43,1.41-3.42,3.17-4.76s8.18-5.18,9.65-6.16a14.12,14.12,0,0,0,3.42-3.15c.93-1.17,6-3.37,8.22-4.5s4.79-3.91,6.11-3.91,7.75,8.72,8.47,10.35,2.87,5.51,4,7.67.52,3.58.52,5,3.74,4.49,4,4.68c-.15-.23-2.57-3.91-2.5-5s.72-3.39-.62-5.68a22.22,22.22,0,0,1-2-4.79,22.58,22.58,0,0,1,3.06,2c1.05.88.65,3.29,3.69,7.92s3.85,8.74,5,9.88,2.09.59,4.69,2.87,6,7.46,6.19,7.78c-.2-.46-3.49-7.86-4.69-9.44s-4.23-3.46-4.5-5.41a5,5,0,0,1,.49-2.12,59.72,59.72,0,0,0,9,2.64c.39,3,2.87,5.28,5.41,9.32S301,105.51,305.23,112Z"/><path class="cls-2" d="M229.31,97.71c-.06,3.46.2,6.88-1.56,9.07s-6.1,3-6.64,3.92-.83,2.71-1.83,2.93c.78-1.46-.05-2.49.78-3.4s6.33-2.44,7.31-4.84A54,54,0,0,0,229.31,97.71Z"/><path class="cls-1" d="M313.71,125.92H1.84a1.5,1.5,0,0,1-1.22-2.38s1.36-1.88,3.15-4.46,4.37-6.39,6.17-9.38c2.67-4.42,7.22-7.6,10.23-9.7a28.66,28.66,0,0,0,2.32-1.72c1.4-1.31,3.88-3.33,6-4.93A38.55,38.55,0,0,1,31.93,91a26.67,26.67,0,0,0,3.77-3.22c3.43-3.36,6-6.51,6.3-7.22l.21-.55a9.4,9.4,0,0,1,3-4.76c.37-.28.74-.61,1.12-.95l.68-.59a12.06,12.06,0,0,1,4.54-2.52c3.68-1.08,5.1.68,7.06,3.12l.6.74c1.33,1.64,5.84,3.3,8.94,4.15L83.63,58.46a1.6,1.6,0,0,1,.46-.4l25.49-14.72c1.48-2.41,10.15-16.37,15.77-19.7,5.33-3.15,7.37-5.72,9.48-9.64a1.51,1.51,0,0,1,1.12-.78c4.39-.6,12.48,3,16.49,6.47a79.82,79.82,0,0,1,6.62,6.75c1.66,1.84,3.23,3.57,4.66,4.86,2.52,2.3,9.27,5.61,11.64,6.74,3.87-3.13,9.94-7.74,12.28-7.66,2.78.05,5.47.86,9,2.71a11.21,11.21,0,0,1,4.07,3.2,61,61,0,0,0,4.42,4.54,43.44,43.44,0,0,0,6.79,5.08c1.44.92,2.88,1.77,4.27,2.59a41.85,41.85,0,0,1,7.21,4.86,1.69,1.69,0,0,1,.2.25c5.32,8,11,13,15.24,13.45a3.85,3.85,0,0,0,2-.24c3.91-1.7,14.47-7.94,14.57-8a1.5,1.5,0,0,1,1.9.31c4.21,4.84,10.89,12.38,12,13.33a3.88,3.88,0,0,0,1.36.63,3.88,3.88,0,0,1,3.21,3.65c.15,1.52,2.67,6.13,4.54,9.17.54.22,1.54.62,2.79,1.07a57.84,57.84,0,0,0,8.8,2.57,1.5,1.5,0,0,1,1.21,1.29c.22,1.67,1.3,3.16,2.81,5.24.73,1,1.55,2.15,2.39,3.47a20.79,20.79,0,0,0,3.65,4.13,37.4,37.4,0,0,1,6.44,7.53,2.94,2.94,0,0,1,.19.29c4.08,6.26,8.21,12,8.25,12a1.49,1.49,0,0,1,.12,1.56A1.48,1.48,0,0,1,313.71,125.92Zm-309-3H310.8c-1.6-2.28-4.15-6-6.69-9.85a1,1,0,0,0-.11-.17,35.17,35.17,0,0,0-6-7,23.25,23.25,0,0,1-4.13-4.71c-.78-1.24-1.55-2.3-2.28-3.31a17.94,17.94,0,0,1-3.13-5.53,67.46,67.46,0,0,1-8.29-2.51c-2-.71-3.3-1.29-3.36-1.31a1.48,1.48,0,0,1-.68-.58c-.83-1.31-5-8-5.25-10.88-.07-.73-.15-.76-1.14-1.08a6.83,6.83,0,0,1-2.37-1.19C265.89,73.54,258.43,65,255.8,62,253,63.7,245.33,68.11,242,69.58a6.89,6.89,0,0,1-3.48.46c-5.15-.57-11.45-5.9-17.32-14.62a42.23,42.23,0,0,0-6.54-4.34c-1.41-.83-2.86-1.69-4.35-2.63A46.37,46.37,0,0,1,203.05,43a61.25,61.25,0,0,1-4.6-4.73,8.36,8.36,0,0,0-3.23-2.53c-3.07-1.62-5.35-2.33-7.64-2.37-1.23.14-6.72,4-11.05,7.58a1.49,1.49,0,0,1-1.58.2c-.4-.18-9.84-4.53-13.25-7.64-1.53-1.39-3.15-3.17-4.86-5.06A78.77,78.77,0,0,0,150.47,22c-3.45-3-10-5.76-13.41-5.79-2.2,3.92-4.62,6.77-10.18,10.06-4.46,2.65-12.29,14.62-14.93,19a1.5,1.5,0,0,1-.53.53L85.85,60.51,70,81.79a1.5,1.5,0,0,1-1.55.56c-.91-.22-8.94-2.22-11.53-5.42l-.61-.75c-1.91-2.37-2.17-2.62-3.87-2.12A9.14,9.14,0,0,0,49,76l-.63.55c-.45.39-.87.76-1.31,1.09a7,7,0,0,0-2,3.42l-.21.56c-.71,1.88-5.3,6.63-7,8.29a29.47,29.47,0,0,1-4.33,3.67,36.94,36.94,0,0,0-3.16,2.18c-2.07,1.54-4.44,3.49-5.78,4.73a27.93,27.93,0,0,1-2.64,2c-2.81,2-7,4.91-9.38,8.79-1.85,3.06-4.43,6.88-6.28,9.54Z"/><path class="cls-1" d="M192.71,125.44l-2.19-2c.1-.1,9.78-10.47,12.65-14a23.72,23.72,0,0,0,3.65-6.64c.37-.93.73-1.81,1.16-2.68,1-2,4.25-4.67,8.09-7.74,1.09-.87,2.33-1.85,2.57-2.13a25.88,25.88,0,0,0,1.3-3c1.12-2.83,2.67-6.72,4.63-9.27a1.42,1.42,0,0,1,.63-.48c3.44-1.38,6.79-4.12,9.75-6.54,2.38-2,4.27-3.49,5.9-4.1l1.06,2.81a25.84,25.84,0,0,0-5.06,3.61c-2.87,2.35-6.41,5.25-10.14,6.84a42,42,0,0,0-4,8.24,16.36,16.36,0,0,1-1.79,3.82,26.52,26.52,0,0,1-3,2.56c-2.44,1.94-6.51,5.19-7.29,6.74-.38.76-.71,1.58-1.06,2.45a26.65,26.65,0,0,1-4.1,7.41C202.56,114.9,193.11,125,192.71,125.44Z"/><path class="cls-1" d="M97.7,125.36l-2.34-1.88L119.13,94c.22-.3,6.55-9.11,13.65-13.81,4.73-3.13,5.32-4.7,6.22-7.07a27.46,27.46,0,0,1,1.39-3.23,20.16,20.16,0,0,1,5.55-7c.37-.32.74-.64,1.13-1a5.54,5.54,0,0,0,1.37-2.36A8.18,8.18,0,0,1,152,55c3.06-1.89,12.69-6.47,14.75-7.44.95-1.38,4.54-6.42,7.94-8.93L176.46,41C173,43.56,169,49.47,169,49.53a1.53,1.53,0,0,1-.6.53c-.12,0-11.61,5.46-14.82,7.45a5.31,5.31,0,0,0-2.33,3.18,8.42,8.42,0,0,1-2.14,3.5c-.42.38-.81.72-1.2,1a17.17,17.17,0,0,0-4.84,6.07,23.65,23.65,0,0,0-1.26,2.9c-1.13,3-2.1,5-7.37,8.51-6.63,4.4-12.85,13-12.91,13.13Z"/><path class="cls-1" d="M51.75,125.4l-2.27-2L74.92,94C79.6,89.16,92,75.87,94,71.27c2.49-5.89,9.7-18.3,10-18.82A105.1,105.1,0,0,1,109.8,43l2.45,1.73a105.3,105.3,0,0,0-5.66,9.19c-.1.17-7.44,12.81-9.85,18.53C94.18,78.5,77.82,95.28,77.12,96Z"/><path class="cls-1" d="M28.05,125.56l-1.95-2.28c.22-.19,21.85-18.62,27.52-24.1s11.57-15.25,13.83-19l.06-.11,2.57,1.56-.07.11c-2.31,3.8-8.46,13.9-14.31,19.55S28.94,124.8,28.05,125.56Z"/><rect class="cls-1" x="-1" y="125.5" width="1480" height="25"/></svg>