<?xml version="1.0" encoding="utf-8"?>
<!-- Generator: Adobe Illustrator 24.3.0, SVG Export Plug-In . SVG Version: 6.00 Build 0)  -->
<svg version="1.1" id="Capa_1" xmlns="http://www.w3.org/2000/svg" xmlns:xlink="http://www.w3.org/1999/xlink" x="0px" y="0px"
	 viewBox="0 0 1479 150" style="enable-background:new 0 0 1479 150;" xml:space="preserve">
<style type="text/css">
	.st0{fill:#475D25;}
	.st1{fill:#FFFFFF;}
</style>
<path class="st0" d="M313.7,124.4H1.8c0,0,1.4-1.9,3.2-4.5c2-2.8,4.4-6.5,6.2-9.5c3.4-5.7,10.3-9.3,12.3-11.1
	c1.3-1.2,3.6-3.2,5.9-4.8c1.2-0.9,2.4-1.7,3.3-2.3c1.4-1,2.8-2.2,4-3.4l0,0c3-2.9,6.2-6.6,6.7-7.8c0.7-1.8,1.2-3.5,2.7-4.6
	c0.6-0.5,1.2-1,1.9-1.6c1.2-1,2.5-1.8,4-2.2c3-0.9,3.7,0.5,6.1,3.4s10.7,4.9,10.7,4.9l16-21.5l25.8-14.9c0,0,9.7-16.1,15.4-19.5
	c5.8-3.4,7.9-6.3,10-10.2c3.6-0.5,11.2,2.6,15.3,6.1s8,8.6,11.2,11.6s12.9,7.4,12.9,7.4s9.7-8,12-7.9s4.7,0.6,8.3,2.5
	s2.2,1.9,8.2,7.5c2.2,2,4.5,3.7,7,5.3c4.5,2.8,9,5.1,11.2,7.3c6.1,9.2,12.1,13.6,16.3,14.1c0.9,0.1,1.9,0,2.7-0.3
	c4-1.8,14.7-8.1,14.7-8.1s10.6,12.1,12.2,13.5s3.8,0.6,4,3.3s5,10.2,5,10.2s1.3,0.6,3.3,1.3c2.9,1.1,5.9,2,9,2.6
	c0.4,3,2.9,5.3,5.4,9.3s6.1,5.1,10.4,11.6l0.1,0.2C309.6,118.7,313.7,124.4,313.7,124.4z"/>
<path class="st1" d="M209.1,104.8c2.1-3.3,3.4-4,4.8-4.9c1.7-0.8,3.1-2.1,4.2-3.7c1-1.8,2.6-5.2,2.6-5.2l-6.4,4.7l-4.5,5
	L209.1,104.8z"/>
<path class="st1" d="M238.7,68.6c-4.2-0.5-10.2-4.9-16.3-14.1c-2.2-2.2-6.7-4.4-11.2-7.3l0,0l4.8,9.1c0,0-10.4-10.9-12.4-11.4
	c-0.5,1.9-0.7,3.9-0.7,5.9c0,0,1.8,1.1,2.4,4.4c0.5,2.3,1.3,4.6,2.3,6.7c-1.4-1.4-2.4-3.1-3-5c-0.5-2.6-4.6-5.6-4.6-7.1
	s1.2-6.1,0.6-7.8s-3.3-7.1-12.7-8.1c-3.3,1.7-6.4,3.7-9.4,5.9c-2.4,1.9-4.6,4.1-6.4,6.6c-1.6,1.9-2.1,3.3-3.6,4.2
	s-12.1,5.5-13.4,6.4s-2.7,4.5-4.2,6.2s-3.6,1.5-3.8,2.2s-2.9,4-3.7,6.8s-1.5,5.3-4.3,6s-7.4,7-8.2,8.5c4.8-2.9,8.1-3,9.6-5
	s3.1-4.6,3.5-6.7s2.7-7.6,7-8.9v5.5c0,0,3.5-11.8,4.8-13.2s13.4-6.1,13.4-6.1c-2,3.9-5.3,7.1-9.3,8.9c9.3-2.1,9.5-4.8,11-8.4
	s1.6-4,3.4-5.3s1.3-3.3,2.5-4.3s7.5-5.6,9.9-6.3l-0.3,2.8c0,0,1.9,1,2.1,1.9s0.9,2,2.8,3.4s3.4,9.7,3.5,10.2l-4.2-7.5l-1.7,2.3
	l-2.3-6c0.1,0.7,2.3,12.5,3.3,14.3c-0.2-0.3-2.1-3-2.7-3.1s-0.7,1.6-1.4,1.7s-1.6-1.1-1.8-3.8s-2.7-4.8-2.9-5
	c0.1,0.2,1.6,4.1,1.4,6.4s-0.5,3.2-0.1,4.2s1.9,0.5,2.2,1.6l5.9,19.8c-0.4-0.7-5.2-9.1-5.7-9.1s-2.8,3.6-2.8,4.3s1.9,1.2,1.9,2.5
	s-0.8,3.9-0.8,5.4s2.9,8.5,3.1,8.9c-0.3-0.4-3.8-5.2-4.9-9.3c-1.1-4.2-3-5.3-3.1-7.3c0.1-1.7-0.5-3.4-1.5-4.8
	c-1.2-2-2.1-3.7-2.1-5.3c-1,3.3,0.8,6.4,1,7.8s-1.8,2.6-1,4.7s1.8,0.8,2.5,4.3s-0.6,5.7-0.4,9.4s1,8.2,4.2,10.2l2.1,5.7
	c-0.1-0.3-2.6-4.4-3.8-4.7s-4-1.4-4.6-3.6c-0.7-2.8-1.9-5.6-3.5-8c1.9,6.8,0.9,10.2,1.7,12.1s3.2,1.5,3.2,1.5s-0.3,3.6,0.9,5
	s1.9,1.3,1.9,1.3c-0.6,1.7-0.4,3.5,0.5,5.1c1,2,1.7,4.2,2.2,6.4c0,0,0.3-4.4,1.6-5.9s4.2-3.4,5.1-6.8s0.7-4.4-0.5-4.8
	s-2.4-3.8-2.4-6.8c2,5,3.8,6.1,6.2,7l-1.2,11.7c1.1-2.1,2.3-4.1,3.6-6c1.7-2.3,1.8-3.8,3.5-4.4c1.1-0.4,2.2-0.8,3.2-1.4
	c0,0,0.9,2.6,2.5,2.7c0,0,2.8,0.2,2.9,0s0.8-1.4,0.8-1.4c-1.2-2.3-1.8-4.8-1.9-7.4c-0.1-4.2,1.8-5.7-2.4-11c3.3,1.3,5,5.9,5.1,8.3
	c0.1,1.6,0.7,3.2,1.7,4.4l4.2-4.4c-1.8-2.1-3.2-4.4-4.1-7c-1.2-3.7-2.1-6.8-2.1-7.1c0.2,0.4,3.8,6.5,5.5,8s3.2,0.8,4.8,2.9l1.5-1.3
	c0,0-3.7-10.7-3.5-10.7s6.3,5.3,6.3,5.3s1.1-5.9,4.6-7.9s12.4-9,12.4-9L238.7,68.6z M195.6,65.9c-0.3-1.2-2.4-4.5-1.4-6.8
	c-0.3,1.6,2.1,5.5,2.9,6.4s-1.9,4.3-1.8,5.2s3.2,8.2,3.2,8.2s-6-6-5.8-7.7S195.9,67,195.6,65.9z M195,98.4c-0.3,2.1-0.4,4.3-0.3,6.4
	c0,0-2.8-4.6-1.2-8s2.4-4.2,2.5-5.4s-3-9-2.9-13.4c1.4,4.3,7.2,14.3,7.2,14.3S195.4,96.1,195,98.4z M199.3,63.6c0-1.3,1.3-5.8,1-7.8
	c0.5,2.5,0.9,5,1.1,7.6c0.2,0.9,3.5,5.7,3.6,11C203.3,70,199.2,64.9,199.3,63.6L199.3,63.6z M214.3,73.6l-1.2,0.8l-4.8-10l4.9,6.1
	h2.8c0,0,2.1,9.2,2.1,9.3S214.3,73.6,214.3,73.6L214.3,73.6z M220.4,65.1c-0.2-0.2-0.9,0.5-2.3,0.3s-5-6.8-5.1-6.8
	c0,0,5.1,4.4,5.5,4.5s2.1-0.2,2.5-0.1s4.7,7.5,4.7,7.5S220.6,65.3,220.4,65.1L220.4,65.1z M230.9,71.7c-0.8,0.6-3.5-2-6-6.1
	C226.5,66.7,231.7,71.1,230.9,71.7L230.9,71.7z"/>
<path class="st1" d="M105.6,96.7c6.3-1.7,14.1-5.1,15.4-6.5s3.7-5.7,6.4-7.6c2.7-1.9,11.6-5.9,11.6-5.9l0.8-3c0,0-8.9,5-12.4,6.7
	s-6.7,7.2-8.5,8.7S105.6,96.7,105.6,96.7z"/>
<path class="st1" d="M164.2,33.6c0,2.8,0.6,5.5,1.9,8c-3.8-4.3-5.7-11.6-5.7-11.6l-7.9-8c0,0,0,8.7,2.4,12.9c-4.6-5-3.6-8.4-3.7-9.8
	s-4.2-5.4-4.2-5.4c0.4,1.9,1.1,3.7,1.9,5.4c-2.1-3.1-6.1-9.2-11.2-8.3c-0.9,0.1,0,2.1,0.7,2.9c0.9,0.8,1.5,1.9,1.8,3.2
	c0.1,1.4,1.9,4.2,1.9,4.2c-1.1-1-2.1-2.2-2.9-3.5c-0.8-1.6-2.6-3.7-3.3-3.3s-5.3,3.7-6.7,4.2s-8.8,6.4-8.8,6.4s-6.8,12.4-7,14.3
	s-5.1,7.4-6.5,9.4s-3.1,7.1-4.2,9.8c-1.1,2.7-7.2,12.9-7.2,12.9L100,72c0,0,1.1,1.6,1.6,2.4s-2.7,7.3-5.3,9.7s-16,9.8-16,9.8
	c7.1-2.6,16.3-6,17.9-8.1s6.2-10.3,6.2-11.7s-2.4-2.1-2.6-3.8s2-2.7,2.2-4.9s4.5-12.2,8.8-16.4c0.7,3,0.2,9.9,0.2,9.9
	s3.4-10.6,3.5-17.7c5.6-7.9,7.6-7.7,9.6-10.5s4-3.1,5.9-4.4s3.8-2.1,5.2-1.7c1.7,0.7,2.7,2.4,2.7,4.3c-0.1,2,2.4,8.7,2.4,8.7
	c-1.1-1.4-2.1-2.9-3-4.4c-0.8-1.4-1.2-0.5-2,0.3s-2.2,2.2-3,2.1s-2.3-4.4-2.8-4.3s0,4.4,0.8,5.6s2.1,3.1,1.9,4.4s1.6,6.7,1.6,6.7
	s-2.8-3.8-3.5-6c0,0-1.4,2.1-1.8,2.1s-3.4-5.5-3.4-5.5s0.1,4.2,0.3,5.5s1.4,2,1.6,2.3s-0.5,3.1,0.2,4.5s2.4,5.3,2.4,5.3l0.9-6.9
	c0,0,6.1-0.2,7,0.8s-0.1,3.2,1,5.5s3.6,7.7,2.1,8.3s-2-0.8-3.6-4.2c-1.3,1.2-4.4,4.6-4.4,4.6l2.1,6.4c-2.4-1.6-4.3-3.8-5.7-6.3
	c-2.4-4.2-3.6-5.3-3.6-5.3c1,2.6,1.8,5.3,2.4,8c0.6,2.8-1.4,8.1-1.4,8.1l12.3-4.8l4.1-4.1l5.3-6.3l2.5-3.5l3.2-1.8l-5.2-10.2
	l5.9,6.5l-1.1-4.6L160,52l3.9-2l-6.9-11c0,0,7.5,7.1,8.6,7.7s5.5-2.6,5.5-2.6l3.4-4.9L164.2,33.6z M158.1,45.5c0,0-3.7-4.4-5.1-5
	s-3.2-0.1-3.6-0.7c-1.6-2.6-2.9-5.3-3.8-8.2l4.5,6.3c0.7,1,2.1-0.5,3.6,1S158.1,45.5,158.1,45.5z"/>
<path class="st1" d="M58.2,98.2c7.6-5.1,12.1-11.8,16.2-17.3s11.8-17.1,12.9-18.2s12.5-8.2,12.5-8.2s-3.5,9.4-4,14.1l7.1-13l5.6-9.5
	l-14.7,8c0,0-4,4.8-5.5,5.5c-1.4,0.6-2.5,1.6-3.2,2.9c-0.8,1.4-11.3,12.3-11.3,12.3L58.2,98.2z"/>
<path class="st1" d="M30.1,94.7c0,0-7.7,11.7-11,12.8s-4,3.2-13.3,13.5L5,119.9c2-2.8,4.4-6.5,6.2-9.5c3.4-5.7,10.3-9.3,12.3-11.1
	c1.3-1.2,3.6-3.2,5.9-4.8L30.1,94.7z"/>
<path class="st1" d="M66.1,80.9c0,0-5.6,8.6-8.5,12.2s-8.1,6.4-11.5,7.8c-3.3,1.5-6.4,3.2-9.5,5.1c1.5-1.9,3.1-3.8,4.8-5.5
	c2.3-2.2,4.4-2.2,5-2.7s0.7-0.8,1.4-2.1c0.6-1,1-2.1,1.1-3.3c0.2-1.1,4.1-4.5,4.9-5.8c0.6-0.6,0.5-1.6-0.1-2.2
	c-0.1-0.1-0.3-0.2-0.4-0.3c-0.8-0.4-2.8-0.8-3.5-1.3s0.1-2.2,0.8-3.1s1.5-3,0.9-3c-2.2-0.1-4.9,4.7-5.2,6.7s-3.3,4-5.2,5.4
	s-4.4,6.3-5.7,8s-2.1,5.3-3.5,5.9s-3.5,3.8-4.2,5.3s-1.5,3.6-7.1,4.1c1.9-0.4,5-3,5.6-4.3s2.5-5.3,3.8-6.2s2.3-3.2,3.7-5.8
	c1.1-2.3,2.1-4.6,3-7l0,0c3-2.9,6.2-6.6,6.7-7.8c0.7-1.8,1.2-3.5,2.7-4.6c0.6-0.5,1.2-1,1.9-1.6h2.2c2,1,3-0.3,4,0s2.2,7.2,6.3,9.6
	c-1.7-2.1-2.7-4.6-2.8-7.3L66.1,80.9z"/>
<path class="st1" d="M40.5,118.6c7.4-1.9,20.1-8.4,21-9.4s7-11,11.5-15.7c-5.6,3.4-10.3,8.2-13.5,14C58.8,108.8,43,116.7,40.5,118.6
	z"/>
<path class="st1" d="M91.2,66.1c0.4,0.6-0.9,2.8-1.3,3.3s-2.6,1-3,2.2s-6.6,8-6.6,8s4.9-9,5.9-10.5S91.1,65.9,91.2,66.1z"/>
<path class="st1" d="M119.9,55.3c-0.4,3.9-1,12.5-1.1,14.3s-6.4,5.5-7.4,6.9s-3.8,10.4-3.8,10.4s1-9.3,2.6-11.6s6.1-4.4,6.7-7.2
	S119.9,55.3,119.9,55.3z"/>
<path class="st1" d="M163,67.8c-6.3,3.4-8.1,4.4-9.1,6s-0.7,3.2-1.1,4.5s-1.7,4.1-1.7,5c0,0-6.8,4.2-10,10.2
	c3.3-3.3,7.3-6.8,9.4-7.7s3.7-3.2,4.2-6.2s0.3-4.2,1-4.9S163,67.8,163,67.8z"/>
<path class="st1" d="M305.4,112.2l-0.8,2.7c0,0-5.9-4.6-6.6-5.1s-0.8-1.7-3.1-3.3c-1.7-1.2-3.2-2.5-4.7-4c1,1.8,2.2,3.5,3.4,5.1
	c2,2.6,2.5,7,2.1,7.1c-1.3-0.1-2.6-0.6-3.6-1.4c-1-0.8-4.5-7.2-6.1-8s-2.5-1.7-5.3-5.7c1.7,4.4,4.6,6.6,4.8,7.3
	c0.1,0.7,0.1,1.4,0,2.1l-1.5-0.5c1.4,2.6,3,5.2,4.8,7.6c2.1,2.7,2.1,1,3.9,2.5c1.3,1.2,2.5,2.6,3.6,4c0,0-3.2-2.5-4.4-3.3
	s-2.3-0.6-3.1-1.1s-1.2-1.6-3-3.3s-5.4-4.8-6-6.3s-3.6-5-5.1-6.1s-3.3-3-3.3-3c0.2,0.7,0.6,1.3,1.1,1.9c1,1.1,0.3,2.6,1,4.9
	c0.6,2.2,2.9,4.4,3.2,4.7c-0.3-0.2-2.8-2.3-3.3-2.8s-1.2-0.1-2.2-1.7s0.1-3-0.8-3.5s-2-3.2-2.2-4.5s1.4-3.3,0.5-4.7
	s-4.3-7.5-4.5-7.6s2.6,8.6,2.6,8.6c-0.5,0.8-0.9,1.7-1.2,2.5c-0.3,1.2-0.5,2.5-0.5,3.8c-0.6-1.2-1.3-2.3-2.1-3.3
	c-0.8-0.7-2-0.3-2.8-0.6s-6.5-5.2-6.5-5.2s4.8,6.2,5.8,6.9s1.2-0.3,2.1,0.4s2.3,4.6,3.6,6.3s0.5,3.1,2.1,5.2s2.4,2,3.6,3
	s0.7,2.3,0.9,4.1s3,4.4,3.2,4.6c-2-0.9-4-1.9-5.9-3c-0.7-0.6-0.1-1.6-1.3-2.5s-3.9-2.6-5.3-4.3c-1.2-1.6-2-3.5-2.4-5.5
	c-0.3-1.3-1.1-1.5-1.7-2.5s-0.3-2-0.9-2.6c-0.8-0.6-1.6-1.1-2.4-1.5c0,0,1.7,1.5,1.9,2.3s-0.1,1.4,0.4,2.1s0,1.3-0.2,2.1
	c0,1.2,0.1,2.4,0.4,3.5c-1.7,0.2-3.3,0.6-4.9,1.2c-1.4,0.7-3.3,2.9-3.9,2.9s-4.4-2.6-4.8-2.5s-0.5,0.7,0.4,1.8s2.6,3.7,1.7,4.3
	s-3.3,3.8-4.9,3.7c-0.8-0.3,0-4,0-4.7s-0.6-1.3-2-3.9s-2.1-7.8-2.1-7.8l3.1,3.7l4.3-2.4c0,0-2.8-2.6-3.6-3.3s-1.9,1.3-3,0.2
	s-3.1-6.1-3.2-6.4c0.2,0.3,4.1,4.5,4.3,4.7s0.9-0.1,1.8-0.3s3.5,2.5,4.8,3.8s7,4.4,7,4.4c-0.6-1.2-1.4-2.4-2.4-3.4
	c-1.5-2-2.9-4.1-4-6.3l4,3l0.9-2.6c-2-0.8-4.9-4.1-5.8-5s-5,0-5.4,0l4.2-4c0,0-1.4-2.8-2.5-5.3c0.2,0,9.5,9.2,9.5,9.2l-3.3-5.6
	l3.8-3.4c0,0-2.8-3.8-2-4.2s8.7,7.1,9.2,7.6c-0.3-0.5-5.8-9.7-6.8-12.3s-2.4-5.9-2.6-6.3c2.2,3,4.6,5.8,7.2,8.4
	c-3.1-4.8-3-8.4-2.8-10.1s1.2-3.8,0.4-4s-2,1.6-5.2,3.1s-5.4,2-6.4,3.3s-2.9,3.5-4.1,4.7s-1,1.9-1,3.1s-4.6,4.7-4.9,5
	c0.2-0.2,4.1-4.4,3.7-5.6s0.8-3.1,0.8-3.1s-6.2,3.6-7.2,4.5c-1.9,1.9-3.3,4.1-4.2,6.6c-0.6,2.1-0.5,5.3-0.8,7.1s-3.2,4.8-5.1,10
	c0.5-2.9,1.3-5.7,2.5-8.4c0.7-1.6,0.4-2.3,0.5-3.8c0.2-2.3,0.8-4.5,1.9-6.6c0.9-1.4,1.4-3.4,3.2-4.8s8.2-5.2,9.6-6.2
	c1.3-0.9,2.5-1.9,3.4-3.2c0.9-1.2,6-3.4,8.2-4.5s4.8-3.9,6.1-3.9c1.3,0,7.7,8.7,8.5,10.4s2.9,5.5,4,7.7s0.5,3.6,0.5,5s3.7,4.5,4,4.7
	c-0.1-0.2-2.6-3.9-2.5-5s0.7-3.4-0.6-5.7c-0.9-1.5-1.5-3.1-2-4.8c1.1,0.6,2.1,1.3,3.1,2c1,0.9,0.6,3.3,3.7,7.9s3.9,8.7,5,9.9
	s2.1,0.6,4.7,2.9s6,7.5,6.2,7.8c-0.2-0.5-3.5-7.9-4.7-9.4s-4.2-3.5-4.5-5.4c0-0.7,0.2-1.5,0.5-2.1c2.9,1.1,5.9,2,9,2.6
	c0.4,3,2.9,5.3,5.4,9.3s5.9,5.1,10.1,11.6L305.4,112.2z"/>
<path class="st1" d="M229.3,97.7c-0.1,3.5,0.2,6.9-1.6,9.1s-6.1,3-6.6,3.9s-0.8,2.7-1.8,2.9c0.8-1.5-0.1-2.5,0.8-3.4
	s6.3-2.4,7.3-4.8C228.2,102.9,228.9,100.3,229.3,97.7z"/>
<path class="st0" d="M313.7,125.9H1.8c-0.8,0-1.5-0.7-1.5-1.5c0-0.3,0.1-0.6,0.3-0.9c0,0,1.4-1.9,3.2-4.5s4.4-6.4,6.2-9.4
	c2.7-4.4,7.2-7.6,10.2-9.7c0.8-0.5,1.6-1.1,2.3-1.7c1.4-1.3,3.9-3.3,6-4.9c1.1-0.8,2.3-1.6,3.4-2.4c1.4-1,2.6-2,3.8-3.2
	c3.4-3.4,6-6.5,6.3-7.2l0.2-0.6c0.5-1.9,1.5-3.5,3-4.8c0.4-0.3,0.7-0.6,1.1-0.9l0.7-0.6c1.3-1.2,2.9-2,4.5-2.5
	c3.7-1.1,5.1,0.7,7.1,3.1l0.6,0.7c1.3,1.6,5.8,3.3,8.9,4.2l15.5-20.7c0.1-0.2,0.3-0.3,0.5-0.4l25.5-14.7
	c1.5-2.4,10.2-16.4,15.8-19.7c5.3-3.1,7.4-5.7,9.5-9.6c0.2-0.4,0.6-0.7,1.1-0.8c4.4-0.6,12.5,3,16.5,6.5c2.3,2.1,4.5,4.4,6.6,6.8
	c1.7,1.8,3.2,3.6,4.7,4.9c2.5,2.3,9.3,5.6,11.6,6.7c3.9-3.1,9.9-7.7,12.3-7.7c2.8,0,5.5,0.9,9,2.7c1.6,0.7,3,1.8,4.1,3.2
	c1.4,1.6,2.9,3.1,4.4,4.5c2.1,1.9,4.4,3.6,6.8,5.1c1.4,0.9,2.9,1.8,4.3,2.6c2.6,1.4,5,3,7.2,4.9c0.1,0.1,0.1,0.2,0.2,0.2
	c5.3,8,11,13,15.2,13.5c0.7,0.1,1.4,0,2-0.2c3.9-1.7,14.5-7.9,14.6-8c0.6-0.4,1.4-0.2,1.9,0.3c4.2,4.8,10.9,12.4,12,13.3
	c0.4,0.3,0.9,0.5,1.4,0.6c1.8,0.3,3.1,1.8,3.2,3.7c0.1,1.5,2.7,6.1,4.5,9.2c0.5,0.2,1.5,0.6,2.8,1.1c2.9,1.1,5.8,1.9,8.8,2.6
	c0.6,0.1,1.1,0.6,1.2,1.3c0.2,1.7,1.3,3.2,2.8,5.2c0.7,1,1.5,2.2,2.4,3.5c1,1.5,2.3,2.9,3.6,4.1c2.5,2.2,4.6,4.7,6.4,7.5
	c0.1,0.1,0.1,0.2,0.2,0.3c4.1,6.3,8.2,12,8.2,12c0.3,0.5,0.4,1.1,0.1,1.6C314.8,125.6,314.3,125.9,313.7,125.9z M4.7,122.9h306.1
	c-1.6-2.3-4.1-6-6.7-9.8c0-0.1-0.1-0.1-0.1-0.2c-1.7-2.6-3.7-4.9-6-7c-1.6-1.4-3-3-4.1-4.7c-0.8-1.2-1.5-2.3-2.3-3.3
	c-1.4-1.6-2.4-3.5-3.1-5.5c-2.8-0.7-5.6-1.5-8.3-2.5c-2-0.7-3.3-1.3-3.4-1.3c-0.3-0.1-0.5-0.3-0.7-0.6c-0.8-1.3-5-8-5.2-10.9
	c-0.1-0.7-0.1-0.8-1.1-1.1c-0.9-0.2-1.7-0.6-2.4-1.2c-1.5-1.3-8.9-9.8-11.6-12.8c-2.8,1.7-10.5,6.1-13.8,7.6
	c-1.1,0.5-2.3,0.6-3.5,0.5c-5.1-0.6-11.4-5.9-17.3-14.6c-2-1.6-4.2-3.1-6.5-4.3c-1.4-0.8-2.9-1.7-4.4-2.6c-2.6-1.6-5-3.4-7.3-5.5
	c-1.6-1.5-3.2-3.1-4.6-4.7c-0.8-1.1-2-2-3.2-2.5c-3.1-1.6-5.4-2.3-7.6-2.4c-1.2,0.1-6.7,4-11.1,7.6c-0.4,0.4-1.1,0.4-1.6,0.2
	c-0.4-0.2-9.8-4.5-13.2-7.6c-1.5-1.4-3.1-3.2-4.9-5.1c-2-2.3-4.1-4.4-6.4-6.5c-3.4-3-10-5.8-13.4-5.8c-2.2,3.9-4.6,6.8-10.2,10.1
	c-4.5,2.6-12.3,14.6-14.9,19c-0.1,0.2-0.3,0.4-0.5,0.5L85.8,60.5L70,81.8c-0.4,0.5-1,0.7-1.6,0.6c-0.9-0.2-8.9-2.2-11.5-5.4
	l-0.6-0.8c-1.9-2.4-2.2-2.6-3.9-2.1C51.2,74.4,50,75.1,49,76l-0.6,0.6c-0.5,0.4-0.9,0.8-1.3,1.1c-1,0.9-1.7,2.1-2,3.4l-0.2,0.6
	c-0.7,1.9-5.3,6.6-7,8.3c-1.3,1.4-2.8,2.6-4.3,3.7c-1.1,0.7-2.1,1.4-3.2,2.2c-2.1,1.5-4.4,3.5-5.8,4.7c-0.8,0.7-1.7,1.4-2.6,2
	c-2.8,2-7,4.9-9.4,8.8c-1.9,3.1-4.4,6.9-6.3,9.5L4.7,122.9z"/>
<path class="st0" d="M192.7,125.4l-2.2-2c0.1-0.1,9.8-10.5,12.6-14c1.6-2,2.8-4.2,3.6-6.6c0.4-0.9,0.7-1.8,1.2-2.7
	c1-2,4.2-4.7,8.1-7.7c1.1-0.9,2.3-1.8,2.6-2.1c0.5-1,0.9-2,1.3-3c1.1-2.8,2.7-6.7,4.6-9.3c0.2-0.2,0.4-0.4,0.6-0.5
	c3.4-1.4,6.8-4.1,9.8-6.5c2.4-2,4.3-3.5,5.9-4.1l1.1,2.8c-1.8,1-3.5,2.2-5.1,3.6c-2.9,2.3-6.4,5.2-10.1,6.8c-1.6,2.6-3,5.4-4,8.2
	c-0.4,1.3-1,2.6-1.8,3.8c-0.9,0.9-1.9,1.8-3,2.6c-2.4,1.9-6.5,5.2-7.3,6.7c-0.4,0.8-0.7,1.6-1.1,2.4c-1,2.7-2.3,5.2-4.1,7.4
	C202.6,114.9,193.1,125,192.7,125.4z"/>
<path class="st0" d="M97.7,125.4l-2.3-1.9L119.1,94c0.2-0.3,6.6-9.1,13.7-13.8c4.7-3.1,5.3-4.7,6.2-7.1c0.4-1.1,0.9-2.2,1.4-3.2
	c1.3-2.7,3.2-5.1,5.6-7c0.4-0.3,0.7-0.6,1.1-1c0.6-0.7,1.1-1.5,1.4-2.4c0.6-1.9,1.9-3.5,3.6-4.5c3.1-1.9,12.7-6.5,14.8-7.4
	c0.9-1.4,4.5-6.4,7.9-8.9l1.8,2.4c-3.5,2.6-7.5,8.5-7.5,8.5c-0.1,0.2-0.4,0.4-0.6,0.5c-0.1,0-11.6,5.5-14.8,7.5
	c-1.2,0.7-2,1.9-2.3,3.2c-0.4,1.3-1.1,2.5-2.1,3.5c-0.4,0.4-0.8,0.7-1.2,1c-2.1,1.6-3.7,3.7-4.8,6.1c-0.5,0.9-0.9,1.9-1.3,2.9
	c-1.1,3-2.1,5-7.4,8.5c-6.6,4.4-12.8,13-12.9,13.1L97.7,125.4z"/>
<path class="st0" d="M51.8,125.4l-2.3-2L74.9,94C79.6,89.2,92,75.9,94,71.3c2.5-5.9,9.7-18.3,10-18.8c1.8-3.2,3.7-6.4,5.8-9.4
	l2.4,1.7c-2,3-3.9,6-5.7,9.2c-0.1,0.2-7.4,12.8-9.8,18.5C94.2,78.5,77.8,95.3,77.1,96L51.8,125.4z"/>
<path class="st0" d="M28,125.6l-2-2.3c0.2-0.2,21.8-18.6,27.5-24.1s11.6-15.2,13.8-19l0.1-0.1l2.6,1.6L70,81.7
	c-2.3,3.8-8.5,13.9-14.3,19.5S28.9,124.8,28,125.6z"/>
<rect x="-1" y="125.5" class="st0" width="1480" height="25"/>
</svg>
