<svg id="Capa_1" data-name="Capa 1" xmlns="http://www.w3.org/2000/svg" viewBox="0 0 50 50"><defs><style>.cls-1{fill:#fff;}</style></defs><path class="cls-1" d="M43,13.64a15.09,15.09,0,0,1-3.67,1c.59-.1,1.46-1.17,1.8-1.6a6.44,6.44,0,0,0,1.22-2.22c0-.06.06-.14,0-.19a.23.23,0,0,0-.2,0,18.53,18.53,0,0,1-4.35,1.67.29.29,0,0,1-.3-.08,3.59,3.59,0,0,0-.39-.39A7.72,7.72,0,0,0,35,10.59a7.35,7.35,0,0,0-3.24-.52,7.84,7.84,0,0,0-3.07.86,8,8,0,0,0-2.48,2,7.65,7.65,0,0,0-1.48,3,8,8,0,0,0-.07,3.13c0,.17,0,.2-.15.17-6-.89-10.94-3-15-7.62-.17-.19-.27-.19-.41,0-1.76,2.64-.91,6.88,1.29,9,.29.27.6.55.92.81a7.86,7.86,0,0,1-2.89-.81c-.17-.11-.26-.05-.27.15a4.13,4.13,0,0,0,0,.85A7.66,7.66,0,0,0,13,27.71a4.09,4.09,0,0,0,1,.29,8.42,8.42,0,0,1-2.83.09c-.21,0-.29.07-.21.26,1.25,3.4,3.94,4.41,5.95,5a7.5,7.5,0,0,1,.81.11s0,0,0,0c-.67,1-3,1.77-4.07,2.15a14.55,14.55,0,0,1-6.17.79c-.33,0-.4,0-.49,0s0,.14.09.22a14,14,0,0,0,1.29.76,19.9,19.9,0,0,0,4.13,1.65c7.41,2,15.76.55,21.33-5,4.37-4.35,5.9-10.34,5.9-16.34,0-.23.28-.36.45-.49a14.53,14.53,0,0,0,2.9-3,.93.93,0,0,0,.19-.58v0C43.16,13.54,43.16,13.57,43,13.64Z"/></svg>