<svg id="Capa_1" data-name="Capa 1" xmlns="http://www.w3.org/2000/svg" viewBox="0 0 50 50"><defs><style>.cls-1,.cls-2{fill:#fff;}.cls-2{fill-rule:evenodd;}</style></defs><path class="cls-1" d="M5.55,44.5,8.34,34.07A19.3,19.3,0,1,1,16,41.69Zm11-6.72.67.4a15.66,15.66,0,1,0-5.37-5.32l.41.67L10.7,39.35Z"/><path class="cls-2" d="M32.36,27.44a3.27,3.27,0,0,0-2.76-.62c-.72.29-1.18,1.41-1.64,2a.69.69,0,0,1-.89.19,12.54,12.54,0,0,1-6.24-5.34.78.78,0,0,1,.1-1.05,4.12,4.12,0,0,0,1.13-1.83,4,4,0,0,0-.5-2.18c-.38-.81-.8-2-1.61-2.42a2.2,2.2,0,0,0-2.39.35,4.85,4.85,0,0,0-1.68,3.85A5,5,0,0,0,16,21.6a10.09,10.09,0,0,0,1.17,2.7,20.51,20.51,0,0,0,1.22,1.86,19,19,0,0,0,5.3,4.92A16.18,16.18,0,0,0,27,32.65a7.38,7.38,0,0,0,3.85.61,4.69,4.69,0,0,0,3.49-2.6,2.31,2.31,0,0,0,.16-1.32C34.33,28.42,33.09,27.88,32.36,27.44Z"/></svg>